<svg width="21" height="21" viewBox="0 0 21 21" fill="none" xmlns="http://www.w3.org/2000/svg">
<g clip-path="url(#clip0)">
<path d="M15.702 9.09998C15.302 9.09998 14.902 9.39998 14.902 9.89998V18.4H1.90195V5.39998H10.402C10.802 5.39998 11.202 5.09998 11.102 4.59998C11.002 4.09998 10.902 3.89998 10.502 3.89998H1.20195C0.801953 3.89998 0.501953 4.29998 0.501953 4.69998V19.2C0.501953 19.6 0.801953 19.9 1.30195 19.9H15.802C16.202 19.9 16.602 19.6 16.602 19.1V9.89998C16.502 9.49998 16.202 9.09998 15.702 9.09998Z" fill="#30B96E"/>
<path d="M19.402 1.39998C19.402 1.29998 19.302 1.19998 19.202 1.19998C19.102 1.09998 19.102 1.09998 19.002 1.09998C18.902 1.09998 18.902 1.09998 18.802 1.09998C18.802 1.09998 18.802 1.09998 18.702 1.09998H12.402C12.002 1.09998 11.602 1.39998 11.602 1.89998C11.602 2.39998 11.902 2.69998 12.402 2.69998H16.902L9.80195 9.59998C9.50195 9.89998 9.50195 10.4 9.80195 10.7C10.002 10.8 10.202 10.9 10.402 10.9C10.602 10.9 10.802 10.8 10.902 10.7L18.002 3.49998V7.99998C18.002 8.39998 18.302 8.79998 18.802 8.79998C19.302 8.79998 19.502 8.39998 19.502 7.99998V1.69998C19.502 1.49998 19.502 1.49998 19.402 1.39998Z" fill="#30B96E"/>
</g>
<defs>
<clipPath id="clip0">
<path d="M0.00195312 0.5H20.002V20.5H0.00195312V0.5Z" fill="white"/>
</clipPath>
</defs>
</svg>
