<?xml version="1.0" encoding="UTF-8"?>
<svg width="49px" height="49px" viewBox="0 0 49 49" version="1.1" xmlns="http://www.w3.org/2000/svg" xmlns:xlink="http://www.w3.org/1999/xlink">
    <!-- Generator: Sketch 54.1 (76490) - https://sketchapp.com -->
    <title>Combined Shape</title>
    <desc>Created with Sketch.</desc>
    <g id="Page-1" stroke="none" stroke-width="1" fill="none" fill-rule="evenodd">
        <g id="Desktop-HD-Copy-2" transform="translate(-396.000000, -449.000000)" fill="#197A88">
            <g id="Combined-Shape" transform="translate(396.000000, 449.000000)">
                <path d="M24.5,49 C10.9690236,49 0,38.0309764 0,24.5 C0,10.9690236 10.9690236,0 24.5,0 C38.0309764,0 49,10.9690236 49,24.5 C49,38.0309764 38.0309764,49 24.5,49 Z M39,15.4408203 L39,14 L10,14 L10,15.4408203 L24.5,24.2017081 L39,15.4408203 Z M39,17.9930048 L25.0742848,26.4069102 C24.7217377,26.6199188 24.2782623,26.6199188 23.9257152,26.4069102 L10,17.9930048 L10,35.2666667 L39,35.2666667 L39,17.9930048 Z"></path>
            </g>
        </g>
    </g>
</svg>