<svg width="24" height="24" viewBox="0 0 24 24" fill="none" xmlns="http://www.w3.org/2000/svg">
<path fill-rule="evenodd" clip-rule="evenodd" d="M7.0002 7.0249C7.0002 4.2249 9.2002 2.0249 12.0002 2.0249C14.7002 2.0249 17.0002 4.2249 17.0002 7.0249C17.0002 9.8249 14.8002 12.0249 12.0002 12.0249C9.2002 12.0249 7.0002 9.8249 7.0002 7.0249ZM15.5002 7.0249C15.5002 5.1249 13.9002 3.5249 12.0002 3.5249C10.0002 3.5249 8.5002 5.1249 8.5002 7.0249C8.5002 8.9249 10.1002 10.5249 12.0002 10.5249C13.9002 10.5249 15.5002 8.9249 15.5002 7.0249Z" fill="#DAE0E6"/>
<path d="M12 14.4751C8.44431 14.4751 5.55 17.5086 5.55 21.2251C5.55 21.6393 5.21421 21.9751 4.8 21.9751C4.38579 21.9751 4.05 21.6393 4.05 21.2251C4.05 16.6955 7.59972 12.9751 12 12.9751C16.4003 12.9751 19.95 16.6955 19.95 21.2251C19.95 21.6393 19.6142 21.9751 19.2 21.9751C18.7858 21.9751 18.45 21.6393 18.45 21.2251C18.45 17.5086 15.5557 14.4751 12 14.4751Z" fill="#DAE0E6"/>
</svg>
