<svg width="24" height="24" viewBox="0 0 24 24" fill="none" xmlns="http://www.w3.org/2000/svg">
<path fill-rule="evenodd" clip-rule="evenodd" d="M15.5928 6.19961V4.85001C15.5928 4.13579 15.057 3.60001 14.3428 3.60001H9.9428C9.22858 3.60001 8.6928 4.13579 8.6928 4.85001V6.19961H3.943C2.88156 6.19961 1.993 6.98363 1.993 7.94961V11.4496C1.993 12.4936 2.8503 13.1996 3.943 13.1996L11.9501 14.194L12.1339 14.194L20.1932 13.1991L20.3404 13.1918C21.3596 13.1099 22.1207 12.3956 21.993 11.3956V7.94961C21.993 6.98339 21.1042 6.19961 20.042 6.19961H15.5928ZM14.0928 6.19961V5.10001H10.1928V6.19961H14.0928ZM20.143 11.6996L20.0511 11.7053L12.042 12.6939L4.0349 11.7053C3.62141 11.6996 3.493 11.5939 3.493 11.4496V7.94961C3.493 7.85676 3.6711 7.69961 3.943 7.69961H20.042C20.3148 7.69961 20.493 7.85674 20.493 7.94961V11.4496L20.5032 11.5729C20.5143 11.6395 20.4456 11.6996 20.143 11.6996Z" fill="#DAE0E6"/>
<path d="M4.792 14.85V18.9H19.393V19.65L20.143 18.9H19.393V14.85C19.393 14.4358 19.7288 14.1 20.143 14.1C20.5572 14.1 20.893 14.4358 20.893 14.85V19.65C20.893 20.0642 20.5572 20.4 20.143 20.4H4.042C3.62778 20.4 3.292 20.0642 3.292 19.65V14.85C3.292 14.4358 3.62778 14.1 4.042 14.1C4.45621 14.1 4.792 14.4358 4.792 14.85Z" fill="#DAE0E6"/>
</svg>
