<svg width="24" height="24" viewBox="0 0 24 24" fill="none" xmlns="http://www.w3.org/2000/svg">
<path fill-rule="evenodd" clip-rule="evenodd" d="M12.298 3.53047L22.698 8.03047C23.3035 8.29249 23.3 9.15243 22.6924 9.40952L12.2924 13.8095C12.1056 13.8886 11.8947 13.8886 11.7079 13.8095L2.34985 9.85034V14.5186C2.34985 14.9328 2.01406 15.2686 1.59985 15.2686C1.18564 15.2686 0.84985 14.9328 0.84985 14.5186V8.7186C0.84985 8.66654 0.855152 8.61573 0.865247 8.56667C0.904703 8.37039 1.02152 8.18802 1.21591 8.07418C1.25128 8.05307 1.28854 8.03478 1.32736 8.01963L11.7023 3.53047C11.8924 3.44824 12.1079 3.44824 12.298 3.53047ZM3.50669 8.71105L12.0001 12.3044L20.4936 8.71105L12.0001 5.03599L3.50669 8.71105Z" fill="#DAE0E6"/>
<path d="M4.95035 17.8882V12.8184C4.95035 12.4042 4.61456 12.0684 4.20035 12.0684C3.78614 12.0684 3.45035 12.4042 3.45035 12.8184V18.4184C3.45035 18.7329 3.64652 19.0139 3.94169 19.1224C8.81141 20.9116 14.1047 20.9927 19.0661 19.3876L19.8365 19.1299C20.1428 19.0278 20.3493 18.7412 20.3493 18.4184V12.8184C20.3493 12.4042 20.0136 12.0684 19.5993 12.0684C19.1851 12.0684 18.8493 12.4042 18.8493 12.8184V17.8795C14.295 19.4092 9.44394 19.417 4.95035 17.8882Z" fill="#DAE0E6"/>
</svg>
