<svg width="16" height="16" viewBox="0 0 16 16" fill="none" xmlns="http://www.w3.org/2000/svg">
<path d="M8.33126 15.9996C11.6156 14.9818 14.0062 11.8637 14.0062 8.17509C14.0062 3.66011 10.4245 0 6.00618 0C6.00621 0 6.00616 0 6.00618 0C7.48798 0 8.85399 0.366767 10.1053 1.10049" fill="#DAE0E6"/>
<path d="M8.33126 15.9996C8.26599 15.9863 8.21231 15.9593 8.17022 15.9188C8.08151 15.8334 8.03719 15.7265 8.03719 15.5984V13.3443C8.03719 12.6534 7.8529 12.1477 7.48441 11.8272C7.88843 11.7845 8.25168 11.7202 8.57429 11.6347C8.89675 11.5491 9.23008 11.4103 9.57392 11.218C9.91769 11.0258 10.2048 10.7889 10.4354 10.5075C10.6657 10.226 10.8535 9.8523 10.9987 9.38562C11.1438 8.91901 11.2167 8.38317 11.2167 7.77777C11.2167 6.91596 10.9365 6.18223 10.3765 5.57676C10.639 4.92869 10.6105 4.20223 10.2917 3.39734C10.0931 3.33316 9.80577 3.37238 9.43005 3.51476C9.05455 3.65723 8.72825 3.81395 8.45194 3.98496L8.04788 4.24126C7.38843 4.05614 6.70779 3.96356 6.00603 3.96356C5.30428 3.96356 4.62379 4.05614 3.96437 4.24126C3.85093 4.16305 3.70035 4.06662 3.51242 3.95282C3.32448 3.83898 3.02861 3.70168 2.62451 3.54141C2.22049 3.38121 1.9156 3.33305 1.71002 3.39722C1.39806 4.20208 1.37329 4.92858 1.63564 5.57664C1.0756 6.18212 0.795519 6.91566 0.795519 7.77766C0.795519 8.38306 0.868183 8.91721 1.01347 9.38027C1.15869 9.84313 1.34484 10.2172 1.57165 10.5021C1.79843 10.7869 2.08376 11.0256 2.42771 11.2178C2.77148 11.4103 3.1047 11.5492 3.42716 11.6347C3.74981 11.7201 4.11305 11.7844 4.51708 11.8271C4.23361 12.0834 4.05991 12.4502 3.99611 12.9276C3.84717 12.9988 3.68765 13.0523 3.51763 13.088C3.34742 13.1234 3.14541 13.1412 2.91152 13.1412C2.67762 13.1412 2.4454 13.0648 2.21509 12.9116C1.98458 12.7584 1.78804 12.5359 1.62491 12.2437C1.4902 12.0159 1.31832 11.8308 1.10923 11.6883C0.900027 11.5458 0.724643 11.4605 0.582854 11.432L0.370264 11.4C0.221324 11.4 0.118679 11.4157 0.0618811 11.4478C0.0050836 11.4799 -0.0125701 11.5209 0.00873359 11.5709C0.0300001 11.6208 0.0618439 11.6706 0.104377 11.7204C0.146947 11.7703 0.192981 11.8132 0.242591 11.8488L0.317042 11.9023C0.472984 11.9735 0.627138 12.1088 0.779579 12.3083C0.932019 12.5076 1.0436 12.6894 1.11448 12.8531L1.22081 13.0989C1.31299 13.3694 1.46893 13.5885 1.6886 13.7559C1.90838 13.9233 2.14581 14.0301 2.40108 14.0762C2.65624 14.1227 2.90269 14.1477 3.14008 14.151C3.37759 14.1544 3.57432 14.1423 3.73026 14.1136L3.97484 14.0711C3.97484 14.3415 3.97655 14.6585 3.9802 15.0218C3.98374 15.3851 3.98557 15.5774 3.98557 15.5987C3.98557 15.7268 3.93953 15.8337 3.84735 15.9191C3.80353 15.9597 3.7485 15.9866 3.68223 15.9999" fill="#DAE0E6"/>
</svg>
