<svg width="24" height="24" viewBox="0 0 24 24" fill="none" xmlns="http://www.w3.org/2000/svg">
<path d="M20.3098 11.7676L12 4.59094L3.69021 11.7676C3.37673 12.0383 2.90312 12.0037 2.63238 11.6902C2.36164 11.3767 2.3963 10.9031 2.70978 10.6323L11.5098 3.03234C11.7914 2.78916 12.2086 2.78916 12.4902 3.03234L21.2902 10.6323C21.6037 10.9031 21.6384 11.3767 21.3676 11.6902C21.0969 12.0037 20.6233 12.0383 20.3098 11.7676Z" fill="#30B96E"/>
<path d="M6.3501 12.8001V19.6501H17.6501V12.8001C17.6501 12.3858 17.9859 12.0501 18.4001 12.0501C18.8143 12.0501 19.1501 12.3858 19.1501 12.8001V20.4001C19.1501 20.8143 18.8143 21.1501 18.4001 21.1501H5.6001C5.18589 21.1501 4.8501 20.8143 4.8501 20.4001V12.8001C4.8501 12.3858 5.18589 12.0501 5.6001 12.0501C6.01431 12.0501 6.3501 12.3858 6.3501 12.8001Z" fill="#30B96E"/>
</svg>
