<svg width="32" height="32" viewBox="0 0 32 32" fill="none" xmlns="http://www.w3.org/2000/svg">
<mask id="mask0" mask-type="alpha" maskUnits="userSpaceOnUse" x="0" y="0" width="32" height="32">
<rect width="32" height="32" fill="white"/>
</mask>
<g mask="url(#mask0)">
<path fill-rule="evenodd" clip-rule="evenodd" d="M0.463843 19.3237C1.03438 21.5958 2.10652 23.6709 3.55508 25.4241L3.53726 25.4113C4.30527 26.3441 5.1799 27.1858 6.14252 27.9177C6.14553 27.9178 6.14854 27.9178 6.15155 27.9178C7.81049 29.1793 9.7295 30.1153 11.8125 30.6301C13.0067 30.9241 14.2551 31.08 15.54 31.08C16.8872 31.08 18.1943 30.9086 19.4407 30.5864C24.8841 29.1744 29.1781 24.8788 30.588 19.4345C30.9092 18.1899 31.08 16.8849 31.08 15.54C31.08 14.1174 30.8888 12.7395 30.5306 11.4303C29.0786 6.13962 24.8938 1.96793 19.5954 0.534588C18.3026 0.185969 16.943 0 15.54 0C14.2068 0 12.9127 0.167935 11.6779 0.483795C6.2451 1.87849 1.94977 6.14454 0.514056 11.5617C0.178666 12.8315 0 14.1649 0 15.54C0 16.8451 0.160861 18.1126 0.463843 19.3237ZM11.813 22.8022C11.3268 25.2493 10.3288 26.8792 8.48024 27.5591C10.5519 28.781 12.9654 29.4826 15.54 29.4826C23.228 29.4826 29.482 23.2266 29.482 15.5406C29.482 7.8526 23.228 1.5986 15.54 1.5986C7.85198 1.5986 1.59998 7.8526 1.59998 15.5406C1.59998 19.8582 3.57291 23.7246 6.66502 26.2842C8.53488 26.1042 9.4512 24.8278 9.87299 22.7762L12.091 11.7622H6.44499L6.79499 10.1982H14.359L11.813 22.8022ZM13.905 4.5022C12.971 4.5022 12.165 5.3082 12.165 6.2402C12.165 7.1222 12.795 7.6022 13.603 7.6022C14.559 7.6022 15.367 6.8462 15.367 5.8642C15.367 5.0062 14.787 4.5022 13.905 4.5022ZM17.791 4.894H19.757L17.313 17.094H17.413L25.377 10.592H27.723L21.9634 15.4882L25.807 22.842H23.765L20.5565 16.6413L16.809 19.616L16.153 22.842H14.211L17.791 4.894Z" fill="#30B96E"/>
</g>
</svg>
