<svg width="24" height="24" viewBox="0 0 24 24" fill="none" xmlns="http://www.w3.org/2000/svg">
<path d="M13.7314 6.96254L11.5314 11.7625C11.3588 12.1391 10.9137 12.3044 10.5371 12.1318C10.1606 11.9593 9.99522 11.5141 10.1678 11.1376L12.3678 6.33755C12.5404 5.96101 12.9855 5.79566 13.3621 5.96825C13.7386 6.14083 13.904 6.58599 13.7314 6.96254Z" fill="#DAE0E6"/>
<path d="M9.48038 7.98052C9.77336 7.68771 9.77349 7.21284 9.48068 6.91986C9.18787 6.62689 8.71299 6.62676 8.42002 6.91957L6.07286 9.26542L8.43538 11.4954C8.7366 11.7798 9.21128 11.7661 9.4956 11.4649C9.77993 11.1636 9.76623 10.689 9.46502 10.4046L8.22554 9.23467L9.48038 7.98052Z" fill="#DAE0E6"/>
<path d="M14.5195 11.4804C14.2266 11.1875 14.2266 10.7126 14.5195 10.4197L15.7041 9.23511L14.5045 7.96501C14.2201 7.66387 14.2337 7.18919 14.5348 6.90479C14.836 6.62038 15.3107 6.63394 15.5951 6.93508L17.7955 9.26498L15.5801 11.4804C15.2872 11.7733 14.8124 11.7733 14.5195 11.4804Z" fill="#DAE0E6"/>
<path fill-rule="evenodd" clip-rule="evenodd" d="M3.75 15.5999H20.25C21.1642 15.5999 22 14.7642 22 13.8499V4.34995C22 3.33573 21.2642 2.59995 20.25 2.59995H3.75C2.73502 2.59995 2 3.33549 2 4.34995V13.8499C2 14.8644 2.73502 15.5999 3.75 15.5999ZM20.5 13.8499C20.5 13.9357 20.3358 14.0999 20.25 14.0999H3.75C3.56369 14.0999 3.5 14.0362 3.5 13.8499V4.34995C3.5 4.16368 3.56369 4.09995 3.75 4.09995H20.25C20.4358 4.09995 20.5 4.16416 20.5 4.34995V13.8499Z" fill="#DAE0E6"/>
<path d="M2.77014 19.9L3.46586 17.6738C3.58941 17.2784 3.36907 16.8577 2.97371 16.7342C2.57835 16.6106 2.15769 16.831 2.03414 17.2263L1.03414 20.4263C0.883219 20.9093 1.24402 21.4 1.75 21.4H22.25C22.756 21.4 23.1168 20.9093 22.9659 20.4263L21.9659 17.2263C21.8423 16.831 21.4217 16.6106 21.0263 16.7342C20.6309 16.8577 20.4106 17.2784 20.5341 17.6738L21.2299 19.9H2.77014Z" fill="#DAE0E6"/>
</svg>
