<svg width="24" height="24" viewBox="0 0 24 24" fill="none" xmlns="http://www.w3.org/2000/svg">
<path d="M15.2993 7.80001H11.2993C10.8851 7.80001 10.5493 7.46422 10.5493 7.05001C10.5493 6.63579 10.8851 6.30001 11.2993 6.30001H15.2993C15.7135 6.30001 16.0493 6.63579 16.0493 7.05001C16.0493 7.46422 15.7135 7.80001 15.2993 7.80001Z" fill="#DAE0E6"/>
<path d="M8.6997 11.1999H15.2997C15.7139 11.1999 16.0497 10.8641 16.0497 10.4499C16.0497 10.0357 15.7139 9.69991 15.2997 9.69991H8.6997C8.28549 9.69991 7.9497 10.0357 7.9497 10.4499C7.9497 10.8641 8.28549 11.1999 8.6997 11.1999Z" fill="#DAE0E6"/>
<path d="M15.2997 14.6999H8.6997C8.28549 14.6999 7.9497 14.3641 7.9497 13.9499C7.9497 13.5357 8.28549 13.1999 8.6997 13.1999H15.2997C15.7139 13.1999 16.0497 13.5357 16.0497 13.9499C16.0497 14.3641 15.7139 14.6999 15.2997 14.6999Z" fill="#DAE0E6"/>
<path d="M8.6997 18.0998H15.2997C15.7139 18.0998 16.0497 17.764 16.0497 17.3498C16.0497 16.9356 15.7139 16.5998 15.2997 16.5998H8.6997C8.28549 16.5998 7.9497 16.9356 7.9497 17.3498C7.9497 17.764 8.28549 18.0998 8.6997 18.0998Z" fill="#DAE0E6"/>
<path d="M9.8999 7.05001C9.8999 6.49801 9.4519 6.05001 8.8999 6.05001C8.3469 6.05001 7.8999 6.49801 7.8999 7.05001C7.8999 7.60201 8.3469 8.05001 8.8999 8.05001C9.4519 8.05001 9.8999 7.60201 9.8999 7.05001Z" fill="#DAE0E6"/>
<path fill-rule="evenodd" clip-rule="evenodd" d="M5.5995 21.4H18.4005C18.8147 21.4 19.1505 21.0642 19.1505 20.65V3.35001C19.1505 2.93579 18.8147 2.60001 18.4005 2.60001H5.5995C5.18529 2.60001 4.8495 2.93579 4.8495 3.35001V20.65C4.8495 21.0642 5.18529 21.4 5.5995 21.4ZM6.3495 4.10001H17.6505V19.9H6.3495V4.10001Z" fill="#DAE0E6"/>
</svg>
