<svg xmlns="http://www.w3.org/2000/svg" xmlns:xlink="http://www.w3.org/1999/xlink" viewBox="0 0 15.54 15.54"><defs><style>.cls-1{fill:none;}.cls-2{fill:#284696;}.cls-3{clip-path:url(#clip-path);}</style><clipPath id="clip-path"><circle class="cls-1" cx="7.77" cy="7.77" r="7.37"/></clipPath></defs><title>favicon</title><g id="Layer_2" data-name="Layer 2"><g id="Layer_1-2" data-name="Layer 1"><path class="cls-2" d="M7.77,15.54a7.77,7.77,0,1,1,7.77-7.77A7.78,7.78,0,0,1,7.77,15.54ZM7.77.8a7,7,0,1,0,7,7A7,7,0,0,0,7.77.8Z"/><g class="cls-3"><path class="cls-2" d="M1.34,13.41l.42-.71a2.22,2.22,0,0,0,1.34.45c1.09,0,1.61-.65,1.84-1.76L6.05,5.88H3.22L3.4,5.1H7.18L5.91,11.4C5.58,13.05,4.78,14,3.11,14A3.14,3.14,0,0,1,1.34,13.41ZM6.08,3.12A.89.89,0,0,1,7,2.25a.65.65,0,0,1,.73.68.87.87,0,0,1-.88.87A.66.66,0,0,1,6.08,3.12Z"/><path class="cls-2" d="M8.9,2.45h1L8.66,8.55h.05l4-3.25h1.17L10.66,8,8.4,9.81l-.32,1.61h-1Zm2,5.09,2,3.88h-1L10.21,8.18Z"/></g></g></g></svg>
